# xmcd
#
# Track frame offsets: 
#        150
#        16650
#        33304
#        61028
#        83634
#        120432
#        138508
#        171785
#        187663
#        260112
#        293553
#        336095
#
# Disc length: 4648 seconds
#
# Revision: 1
# Processed by: cddbd v1.5.2PL0 Copyright (c) Steve Scherf et al.
# Submitted via: ExactAudioCopy v1.1
#
DISCID=9412260c
DTITLE=Taj Mahal - The Hidden Treasures Of Taj Mahal 1969 - 1973 disc 
DTITLE=1
DYEAR=2012
DGENRE=Blues
TTITLE0=Chainey Do
TTITLE1=Sweet Mama Janisse
TTITLE2=Yan-Nah Mama-Loo
TTITLE3=Tomorrow May Not Be Your Day
TTITLE4=I Pity The Poor Immigrant
TTITLE5=Jacob's Ladder
TTITLE6=Ain't Gwine Whistle Dixie (Any Mo')
TTITLE7=Sweet Mama Janisse
TTITLE8=You Ain't No Streetwalker Mama, Honey But I Do Love The Way Yo
TTITLE8=u Strut Your Stuff
TTITLE9=Good Morning Little Schoolgirl
TTITLE10=Shady Grove
TTITLE11=Butter
EXTD=
EXTT0=
EXTT1=
EXTT2=
EXTT3=
EXTT4=
EXTT5=
EXTT6=
EXTT7=
EXTT8=
EXTT9=
EXTT10=
EXTT11=
PLAYORDER=
